<?xml version="1.0" encoding="UTF-8" standalone="no"?>
<!-- Created with Inkscape (http://www.inkscape.org/) -->

<svg
   width="28.672474mm"
   height="16.314049mm"
   viewBox="0 0 28.672474 16.314049"
   version="1.1"
   id="svg1"
   xml:space="preserve"
   inkscape:version="1.3.2 (1:1.3.2+202311252150+091e20ef0f)"
   sodipodi:docname="examinBlanc.svg"
   xmlns:inkscape="http://www.inkscape.org/namespaces/inkscape"
   xmlns:sodipodi="http://sodipodi.sourceforge.net/DTD/sodipodi-0.dtd"
   xmlns="http://www.w3.org/2000/svg"
   xmlns:svg="http://www.w3.org/2000/svg"><sodipodi:namedview
     id="namedview1"
     pagecolor="#ffffff"
     bordercolor="#000000"
     borderopacity="0.25"
     inkscape:showpageshadow="2"
     inkscape:pageopacity="0.0"
     inkscape:pagecheckerboard="0"
     inkscape:deskcolor="#d1d1d1"
     inkscape:document-units="mm"
     inkscape:zoom="1.0280428"
     inkscape:cx="2460.5007"
     inkscape:cy="405.62514"
     inkscape:window-width="1850"
     inkscape:window-height="1016"
     inkscape:window-x="70"
     inkscape:window-y="27"
     inkscape:window-maximized="1"
     inkscape:current-layer="layer1" /><defs
     id="defs1" /><g
     inkscape:label="Calque 1"
     inkscape:groupmode="layer"
     id="layer1"
     transform="translate(-673.39211,-74.568029)"><g
       id="g2"><path
         style="fill:#1fbdc3;fill-opacity:1"
         d="m 691.77316,90.828213 c 0,-0.0578 0.74124,-0.49897 1.64721,-0.98045 1.62987,-0.8662 5.90853,-4.76918 6.51671,-5.94452 0.26703,-0.51605 0.0893,-0.7652 -1.84,-2.5802 -7.22697,-6.79861 -14.63801,-6.51405 -20.0582,0.77016 -0.47026,0.63198 -0.43876,0.49717 0.15458,-0.66146 4.32665,-8.44885 14.84118,-8.37649 22.8239,0.15706 1.98133,2.11805 1.36249,3.23225 -3.68795,6.64005 -1.84734,1.24651 -5.55625,2.98163 -5.55625,2.59936 z m -5.64748,-3.68836 c -4.31,-1.57331 -4.10602,-7.64838 0.29789,-8.87147 1.48723,-0.41304 1.67792,-0.36553 1.49284,0.37192 -0.36534,1.45559 1.38668,2.29736 2.60419,1.2512 0.58144,-0.49962 1.08235,0.0385 1.5344,1.64851 0.97811,3.48353 -2.56362,6.82844 -5.92932,5.59984 z"
         id="path1-2"
         sodipodi:nodetypes="ssscsssssssssss" /><path
         style="fill:#2575b3;fill-opacity:1"
         d="m 682.34957,89.810463 c -4.69988,-1.56406 -9.90553,-6.07082 -8.80973,-7.62696 2.32007,-3.29473 8.88684,-7.64837 11.48645,-7.61529 0.29104,0.004 -0.16269,0.29407 -1.00829,0.64527 -2.76957,1.15026 -5.70695,3.5718 -7.98917,6.58615 -0.77933,1.02936 -0.77933,1.02936 1.23667,2.93115 6.036,5.69401 13.01354,5.81507 19.83035,0.34403 1.68877,-1.35537 1.68877,-1.35537 0.74082,-0.18412 -3.6683,4.53241 -10.31058,6.64245 -15.4871,4.91977 z"
         id="path1-6"
         sodipodi:nodetypes="sscssssss" /><circle
         style="fill:#2575b3;fill-opacity:1;stroke-width:32.5625;stroke-linecap:round"
         id="path2"
         cx="687.72833"
         cy="82.72506"
         r="2.5977752" /></g></g></svg>
